# xmcd
# 
# Track frame offsets:
#     150
#     19226
#     38801
#     57512
#     76512
#     91482
#     110664
#     141182
#     154607
#     165682
#     183349
#     206503
#     234644
#     262684
#     290630
#     314980
# 
# Disc length: 4533
# 
# Revision: 1
# Processed by: cddbd v1.5.2PL0 Copyright (c) Steve Scherf et al.
# Submitted via: fre:ac v1.1beta1pre4
# 
DISCID=de11b310
DTITLE=Various Artist - Fantazia Club classics [Disc 2]
DYEAR=2006
DGENRE=Dance
TTITLE0=Moby - Go
TTITLE1=De'Lacy - Hideaway (Deep Dish mix)
TTITLE2=Atlantic Ocean - Waterfall (original instrumental mix)
TTITLE3=Stardust - Music Sounds Better With You
TTITLE4=Direkt - Two Fat Guitars
TTITLE5=Jaydee - Plastic Dreams
TTITLE6=Sona - Keep Control (hydrogen rockers vocal mix)
TTITLE7=Laguna - Spiller From Rio
TTITLE8=Funkatarium - Jump
TTITLE9=CJ Bolland - Sugar Is Sweeter (Armand's Drum and Bass mix)
TTITLE10=Duke - So In Love With You
TTITLE11=Ken Doh - Nakasaki (I Need A Lover)
TTITLE12=Chicane - Offshore
TTITLE13=Partison - No Me Gustah
TTITLE14=Three Drives - Greece 2000
TTITLE15=Paul Van Dyk - For An Angel (PvD E-werk club mix)
EXTD=Fantazia Club Classics CD2 Brandon Block 1996 - 2000 
EXTT0=
EXTT1=
EXTT2=
EXTT3=
EXTT4=
EXTT5=
EXTT6=
EXTT7=
EXTT8=
EXTT9=
EXTT10=
EXTT11=
EXTT12=
EXTT13=
EXTT14=
EXTT15=
PLAYORDER=
